<svg xmlns="http://www.w3.org/2000/svg" version="1.1" xmlns:xlink="http://www.w3.org/1999/xlink" width="200" height="200"><svg xmlns="http://www.w3.org/2000/svg" version="1.1" xmlns:xlink="http://www.w3.org/1999/xlink" viewBox="0 0 200 200"><rect width="200" height="200" fill="url('#gradient')"></rect><defs><linearGradient id="SvgjsLinearGradient1001" gradientTransform="rotate(50 0.5 0.5)"><stop offset="0%" stop-color="#eefcff"></stop><stop offset="100%" stop-color="#a5b0b9"></stop></linearGradient></defs><g><g fill="#000000" transform="matrix(2.2962859145059564,0,0,2.2962859145059564,18.524377059309984,116.99485902285025)" stroke="#ffffff" stroke-width="0.7"><path d="M9.51-8.79L4.80-2.54L9.62-2.54L9.62 0L0.64 0L0.64-1.84L5.33-8.03L0.85-8.03L0.85-10.57L9.51-10.57L9.51-8.79ZM20.46 0L17.17 0Q16.99-0.32 16.86-0.95L16.86-0.95Q15.95 0.20 14.32 0.20L14.32 0.20Q12.82 0.20 11.78-0.71Q10.73-1.61 10.73-2.98L10.73-2.98Q10.73-4.70 12.00-5.58Q13.27-6.46 15.69-6.46L15.69-6.46L16.71-6.46L16.71-7.01Q16.71-8.47 15.45-8.47L15.45-8.47Q14.28-8.47 14.28-7.31L14.28-7.31L10.99-7.31Q10.99-8.85 12.29-9.80Q13.59-10.76 15.62-10.76Q17.64-10.76 18.81-9.78Q19.98-8.79 20.01-7.07L20.01-7.07L20.01-2.39Q20.03-0.94 20.46-0.17L20.46-0.17L20.46 0ZM15.11-2.15L15.11-2.15Q15.72-2.15 16.13-2.41Q16.53-2.68 16.71-3.01L16.71-3.01L16.71-4.70L15.75-4.70Q14.03-4.70 14.03-3.15L14.03-3.15Q14.03-2.71 14.34-2.43Q14.64-2.15 15.11-2.15ZM26.30-2.34L26.30-2.34Q26.99-2.34 27.37-2.72Q27.75-3.10 27.74-3.77L27.74-3.77L30.83-3.77Q30.83-2.03 29.58-0.92Q28.34 0.20 26.38 0.20L26.38 0.20Q24.07 0.20 22.74-1.25Q21.42-2.70 21.42-5.25L21.42-5.25L21.42-5.39Q21.42-6.99 22.01-8.22Q22.60-9.44 23.71-10.10Q24.82-10.76 26.35-10.76L26.35-10.76Q28.41-10.76 29.62-9.62Q30.83-8.48 30.83-6.52L30.83-6.52L27.74-6.52Q27.74-7.34 27.34-7.78Q26.94-8.22 26.27-8.22L26.27-8.22Q24.99-8.22 24.78-6.59L24.78-6.59Q24.71-6.07 24.71-5.17L24.71-5.17Q24.71-3.57 25.09-2.96Q25.47-2.34 26.30-2.34ZM35.44-15L35.44-9.43Q36.49-10.76 38.13-10.76L38.13-10.76Q39.88-10.76 40.77-9.73Q41.66-8.69 41.68-6.67L41.68-6.67L41.68 0L38.38 0L38.38-6.59Q38.38-7.43 38.04-7.83Q37.70-8.22 36.88-8.22L36.88-8.22Q35.86-8.22 35.44-7.58L35.44-7.58L35.44 0L32.15 0L32.15-15L35.44-15ZM45.55-3.19L45.55-3.19Q46.33-3.19 46.85-2.73Q47.36-2.27 47.36-1.54Q47.36-0.82 46.85-0.36Q46.33 0.11 45.55 0.11L45.55 0.11Q44.76 0.11 44.24-0.36Q43.73-0.83 43.73-1.54Q43.73-2.26 44.24-2.72Q44.76-3.19 45.55-3.19ZM52.77-15L52.77-9.43Q53.83-10.76 55.47-10.76L55.47-10.76Q57.22-10.76 58.11-9.73Q58.99-8.69 59.01-6.67L59.01-6.67L59.01 0L55.71 0L55.71-6.59Q55.71-7.43 55.37-7.83Q55.03-8.22 54.21-8.22L54.21-8.22Q53.19-8.22 52.77-7.58L52.77-7.58L52.77 0L49.48 0L49.48-15L52.77-15ZM67.24 0L67.14-1.14Q66.09 0.20 64.32 0.20L64.32 0.20Q62.58 0.20 61.68-0.82Q60.79-1.83 60.79-3.72L60.79-3.72L60.79-10.57L64.08-10.57L64.08-3.70Q64.08-2.34 65.40-2.34L65.40-2.34Q66.53-2.34 67.01-3.15L67.01-3.15L67.01-10.57L70.32-10.57L70.32 0L67.24 0Z"></path></g></g></svg><style>@media (prefers-color-scheme: light) { :root { filter: none; } }
@media (prefers-color-scheme: dark) { :root { filter: none; } }
</style></svg>